HIERARCHY
ROOT Hips
{
	OFFSET 53.022499 -4.154834 84.312798
	CHANNELS 6 Xposition Yposition Zposition Xrotation Yrotation Zrotation
	JOINT spine
	{
		OFFSET 0.000000 -0.342408 5.954384
		CHANNELS 3 Xrotation Yrotation Zrotation
		JOINT spine1
		{
			OFFSET 0.000000 -0.000001 8.856018
			CHANNELS 3 Xrotation Yrotation Zrotation
			JOINT spine2
			{
				OFFSET 0.000000 -0.000001 8.485672
				CHANNELS 3 Xrotation Yrotation Zrotation
				JOINT Neck
				{
					OFFSET 0.000000 -1.038703 21.786301
					CHANNELS 3 Xrotation Yrotation Zrotation
					JOINT Head
					{
						OFFSET 0.000000 -0.000001 6.582199
						CHANNELS 3 Xrotation Yrotation Zrotation
						End Site
						{
							OFFSET 0.000000 5.254357 15.932602
						}
					}
				}
				JOINT RightShoulder
				{
					OFFSET -3.573071 0.497524 9.163864
					CHANNELS 3 Xrotation Yrotation Zrotation
					JOINT RightArm
					{
						OFFSET 0.000000 -0.000002 12.019196
						CHANNELS 3 Xrotation Yrotation Zrotation
						JOINT RightArmRoll
						{
							OFFSET 0.000000 -0.000001 6.067551
							CHANNELS 3 Xrotation Yrotation Zrotation
							JOINT RightForeArm
							{
								OFFSET 0.000000 -0.000003 17.672592
								CHANNELS 3 Xrotation Yrotation Zrotation
								JOINT RightForeArmRoll
								{
									OFFSET 0.000000 -0.000001 6.808716
									CHANNELS 3 Xrotation Yrotation Zrotation
									JOINT RightHand
									{
										OFFSET 0.000000 -0.000002 13.663605
										CHANNELS 3 Xrotation Yrotation Zrotation
										End Site
										{
											OFFSET 0.000000 0.000000 0.100006
										}
									}
								}
							}
						}
					}
				}
				JOINT LeftShoulder
				{
					OFFSET 3.573071 0.497524 9.163864
					CHANNELS 3 Xrotation Yrotation Zrotation
					JOINT LeftArm
					{
						OFFSET 0.000000 -0.000002 12.019196
						CHANNELS 3 Xrotation Yrotation Zrotation
						JOINT LeftArmRoll
						{
							OFFSET 0.000000 -0.000001 6.067551
							CHANNELS 3 Xrotation Yrotation Zrotation
							JOINT LeftForeArm
							{
								OFFSET 0.000000 -0.000003 17.672592
								CHANNELS 3 Xrotation Yrotation Zrotation
								JOINT LeftForeArmRoll
								{
									OFFSET 0.000000 -0.000001 6.808716
									CHANNELS 3 Xrotation Yrotation Zrotation
									JOINT LeftHand
									{
										OFFSET 0.000000 -0.000002 13.663605
										CHANNELS 3 Xrotation Yrotation Zrotation
										End Site
										{
											OFFSET 0.000000 0.000000 0.100006
										}
									}
								}
							}
						}
					}
				}
			}
		}
	}
	JOINT RightUpLeg
	{
		OFFSET -5.277740 0.811858 -0.967796
		CHANNELS 3 Xrotation Yrotation Zrotation
		JOINT RightUpLegRoll
		{
			OFFSET 0.000000 -0.000003 16.021400
			CHANNELS 3 Xrotation Yrotation Zrotation
			JOINT RightLeg
			{
				OFFSET 0.000000 0.000003 -19.840096
				CHANNELS 3 Xrotation Yrotation Zrotation
				JOINT RightLegRoll
				{
					OFFSET 0.000000 -0.000003 19.904999
					CHANNELS 3 Xrotation Yrotation Zrotation
					JOINT RightFoot
					{
						OFFSET 0.000000 -0.000003 16.567497
						CHANNELS 3 Xrotation Yrotation Zrotation
						JOINT RightToeBase
						{
							OFFSET 0.000000 -0.000002 13.849602
							CHANNELS 3 Xrotation Yrotation Zrotation
							End Site
							{
								OFFSET 0.005871 0.773115 6.707275
							}
						}
					}
				}
			}
		}
	}
	JOINT LeftUpLeg
	{
		OFFSET 5.277740 0.811858 -0.967796
		CHANNELS 3 Xrotation Yrotation Zrotation
		JOINT LeftUpLegRoll
		{
			OFFSET 0.000000 -0.000003 16.021500
			CHANNELS 3 Xrotation Yrotation Zrotation
			JOINT LeftLeg
			{
				OFFSET 0.000000 -0.000003 19.839996
				CHANNELS 3 Xrotation Yrotation Zrotation
				JOINT LeftLegRoll
				{
					OFFSET 0.000000 -0.000003 20.089005
					CHANNELS 3 Xrotation Yrotation Zrotation
					JOINT LeftFoot
					{
						OFFSET 0.000000 -0.000003 16.383499
						CHANNELS 3 Xrotation Yrotation Zrotation
						JOINT LeftToeBase
						{
							OFFSET 0.000000 -0.000002 13.849594
							CHANNELS 3 Xrotation Yrotation Zrotation
							End Site
							{
								OFFSET -0.026310 0.773116 6.707275
							}
						}
					}
				}
			}
		}
	}
}
MOTION
Frames: 12
Frame Time: 0.041667
53.884197 -3.612432 84.289703 -10.370640 -0.981914 -3.247675 -0.287287 -0.017852 0.060390 3.428273 -0.058557 0.127316 5.073353 -0.056983 0.135261 10.029951 4.659529 -0.851989 7.014219 -6.123411 -0.642955 1.809843 -74.848177 0.177581 -50.389656 -111.833228 -53.503109 -0.000000 -0.000000 -0.000000 -0.027804 3.643221 -1.990853 0.000003 0.000002 -3.011610 -5.000165 -7.999921 0.000019 -12.802061 71.929699 15.556668 -41.680871 116.578311 48.666355 -0.000001 -0.000000 -0.000000 -0.028993 -3.646060 1.990785 -0.000008 -0.000000 3.011610 -5.000184 7.999947 -0.000002 2.726240 -177.166214 5.144772 -179.999991 0.000005 -1.153996 167.878291 -3.251025 -0.720839 0.000002 -0.000004 0.187261 70.793866 6.832327 2.153512 25.456957 -7.355614 0.000002 5.140376 -177.981151 0.935212 -0.000005 -0.000004 -1.175640 -9.619064 2.489475 0.460634 0.000004 0.000001 -0.134107 70.190084 -6.830391 -2.206776 25.456952 7.355613 -0.000000 
53.876598 -3.635412 84.292000 -10.366240 -0.981988 -3.250401 -0.288882 -0.017762 0.060390 3.425081 -0.056687 0.127316 5.070163 -0.055113 0.135259 10.043692 4.649385 -0.852338 7.007773 -6.118988 -0.642233 1.823369 -74.860581 0.190731 -50.406837 -111.834635 -53.518374 -0.000000 0.000000 0.000000 -0.027804 3.643220 -1.990852 0.000001 0.000001 -3.011610 -5.000165 -7.999920 0.000018 -12.797861 71.949062 15.552711 -41.742182 116.564760 48.707220 0.000002 0.000000 0.000001 -0.028991 -3.646060 1.990786 -0.000008 0.000000 3.011610 -5.000183 7.999949 -0.000001 2.731060 -177.164206 5.146206 -179.999991 0.000005 -1.153996 167.891104 -3.252156 -0.721317 0.000003 -0.000004 0.186799 70.781319 6.832356 2.153488 25.456955 -7.355618 0.000002 5.137560 -177.982121 0.933075 -0.000004 -0.000004 -1.175640 -9.618092 2.492086 0.460614 0.000005 0.000001 -0.134107 70.192515 -6.830383 -2.206723 25.456953 7.355613 -0.000001 
53.874100 -3.636252 84.292603 -10.361838 -0.982011 -3.253078 -0.290470 -0.017680 0.060390 3.421904 -0.054758 0.127314 5.066982 -0.053185 0.135259 10.056970 4.637918 -0.852551 7.001847 -6.113386 -0.641348 1.835739 -74.873790 0.202534 -50.424199 -111.836117 -53.533568 0.000001 0.000000 0.000000 -0.027804 3.643221 -1.990852 0.000001 0.000002 -3.011610 -5.000168 -7.999920 0.000019 -12.792598 71.968091 15.547549 -41.802868 116.550990 48.747832 -0.000002 -0.000000 -0.000001 -0.028991 -3.646061 1.990785 -0.000009 0.000000 3.011611 -5.000187 7.999948 -0.000002 2.736200 -177.162239 5.147556 -179.999991 0.000005 -1.154991 167.904519 -3.253295 -0.720767 0.000003 -0.000004 0.186316 70.768218 6.832345 2.153591 25.456957 -7.355617 0.000001 5.134537 -177.982121 0.931093 -0.000005 -0.000004 -1.175640 -9.617139 2.494577 0.460582 0.000005 0.000002 -0.134107 70.194967 -6.830407 -2.206678 25.456950 7.355613 -0.000001 
53.875500 -3.631692 84.292702 -10.357239 -0.982000 -3.255704 -0.292056 -0.017601 0.060390 3.418733 -0.052789 0.127313 5.063822 -0.051216 0.135257 10.069838 4.625522 -0.852658 6.996270 -6.106956 -0.640345 1.847306 -74.887608 0.213407 -50.441538 -111.837606 -53.548601 -0.000002 0.000000 -0.000000 -0.027803 3.643221 -1.990853 0.000003 0.000001 -3.011610 -5.000166 -7.999920 0.000018 -12.786622 71.986963 15.541597 -41.861721 116.537835 48.786931 0.000001 0.000000 -0.000000 -0.028993 -3.646060 1.990786 -0.000007 -0.000000 3.011611 -5.000183 7.999948 -0.000002 2.741568 -177.161255 5.148780 -179.999991 0.000005 -1.154993 167.918616 -3.254455 -0.721173 0.000003 -0.000004 0.185816 70.754824 6.832355 2.153614 25.456959 -7.355616 0.000001 5.131371 -177.983118 0.929065 -0.000005 -0.000004 -1.175640 -9.616196 2.497000 0.460543 0.000004 0.000001 -0.134107 70.197501 -6.830400 -2.206721 25.456952 7.355613 -0.000001 
53.880997 -3.630165 84.292702 -10.352637 -0.981968 -3.258317 -0.293637 -0.017525 0.060390 3.415562 -0.050796 0.127312 5.060652 -0.049224 0.135257 10.082595 4.612598 -0.852713 6.990899 -6.100058 -0.639266 1.858407 -74.901617 0.223743 -50.460983 -111.838528 -53.565796 0.000000 -0.000000 -0.000000 -0.027804 3.643220 -1.990853 -0.000000 0.000001 -3.011611 -5.000163 -7.999920 0.000019 -12.780080 72.005562 15.535030 -41.920300 116.524557 48.825792 0.000000 0.000000 -0.000000 -0.028994 -3.646060 1.990785 -0.000007 0.000000 3.011610 -5.000185 7.999949 -0.000000 2.747060 -177.160258 5.149970 -179.999991 0.000005 -1.154995 167.932932 -3.255603 -0.721580 0.000003 -0.000004 0.185310 70.741198 6.832327 2.153645 25.456957 -7.355615 0.000001 5.128128 -177.984102 0.927064 -0.000005 -0.000004 -1.175640 -9.615263 2.499384 0.460501 0.000005 0.000001 -0.134107 70.199953 -6.830424 -2.206673 25.456953 7.355613 -0.000000 
53.886002 -3.625302 84.294304 -10.348035 -0.981932 -3.260918 -0.295219 -0.017450 0.060390 3.412403 -0.048797 0.127313 5.057492 -0.047227 0.135256 10.095250 4.599537 -0.852744 6.985580 -6.093030 -0.638176 1.869415 -74.915728 0.233960 -50.478506 -111.840092 -53.580894 -0.000001 0.000000 0.000000 -0.027805 3.643220 -1.990853 0.000001 0.000001 -3.011610 -5.000165 -7.999919 0.000019 -12.773537 72.024276 15.528442 -41.979094 116.511375 48.864959 0.000001 0.000000 0.000000 -0.028993 -3.646060 1.990786 -0.000006 0.000000 3.011609 -5.000183 7.999949 -0.000002 2.752579 -177.158277 5.151209 -179.999991 0.000005 -1.156004 167.947344 -3.256754 -0.720969 0.000003 -0.000004 0.184802 70.727579 6.832327 2.153681 25.456957 -7.355613 -0.000001 5.124865 -177.984075 0.925159 -0.000005 -0.000004 -1.175640 -9.614331 2.501747 0.460456 0.000005 0.000002 -0.134107 70.202501 -6.830414 -2.206715 25.456953 7.355612 -0.000001 
53.881802 -3.632200 84.283897 -10.343437 -0.981907 -3.263532 -0.296802 -0.017373 0.060390 3.409232 -0.046810 0.127313 5.054322 -0.045241 0.135256 10.108011 4.586742 -0.852796 6.980147 -6.086248 -0.637117 1.880686 -74.929757 0.244484 -50.497771 -111.840953 -53.597925 -0.000000 -0.000000 -0.000000 -0.027802 3.643221 -1.990853 -0.000000 0.000001 -3.011609 -5.000166 -7.999920 0.000019 -12.767130 72.042964 15.522016 -42.039309 116.497482 48.905606 -0.000000 0.000000 0.000000 -0.028993 -3.646060 1.990786 -0.000009 -0.000000 3.011611 -5.000183 7.999947 -0.000002 2.758030 -177.157294 5.152408 -179.999991 0.000005 -1.156004 167.961646 -3.257901 -0.721362 0.000002 -0.000004 0.184300 70.713966 6.832322 2.153716 25.456959 -7.355614 -0.000000 5.121643 -177.985072 0.923152 -0.000005 -0.000004 -1.175640 -9.613388 2.504130 0.460413 0.000005 0.000001 -0.134107 70.205049 -6.830407 -2.206757 25.456957 7.355613 -0.000001 
53.880196 -3.621221 84.283791 -10.338835 -0.981907 -3.266172 -0.298389 -0.017294 0.060391 3.406062 -0.044852 0.127312 5.051151 -0.043284 0.135257 10.120982 4.574613 -0.852908 6.974474 -6.080047 -0.636140 1.892569 -74.943356 0.255706 -50.515307 -111.842517 -53.613191 0.000001 -0.000000 -0.000000 -0.027803 3.643220 -1.990853 -0.000001 0.000002 -3.011611 -5.000162 -7.999920 0.000018 -12.761269 72.061829 15.516195 -42.098578 116.484478 48.944992 -0.000003 -0.000000 0.000000 -0.028995 -3.646060 1.990785 -0.000008 0.000000 3.011611 -5.000185 7.999949 -0.000001 2.763328 -177.155313 5.153707 -179.999991 0.000005 -1.157002 167.975566 -3.259045 -0.720777 0.000003 -0.000004 0.183806 70.700654 6.832315 2.153833 25.456955 -7.355617 0.000001 5.118517 -177.985058 0.921201 -0.000005 -0.000004 -1.175640 -9.612444 2.506572 0.460375 0.000005 0.000001 -0.134107 70.207583 -6.830400 -2.206701 25.456950 7.355613 -0.000001 
53.889000 -3.620682 84.291603 -10.334435 -0.981949 -3.268861 -0.299979 -0.017209 0.060390 3.402881 -0.042941 0.127313 5.047972 -0.041374 0.135258 10.134367 4.563544 -0.853126 6.968394 -6.074805 -0.635293 1.905411 -74.956258 0.268040 -50.532454 -111.843938 -53.628258 0.000001 -0.000000 -0.000000 -0.027802 3.643221 -1.990852 0.000003 0.000002 -3.011610 -5.000166 -7.999919 0.000018 -12.756241 72.080947 15.511302 -42.159766 116.470981 48.986055 -0.000000 -0.000000 0.000001 -0.028992 -3.646061 1.990786 -0.000007 -0.000000 3.011610 -5.000184 7.999949 -0.000001 2.768381 -177.153332 5.155074 -179.999991 0.000005 -1.157003 167.988776 -3.260194 -0.721235 0.000003 -0.000004 0.183330 70.687690 6.832336 2.153833 25.456952 -7.355617 0.000001 5.115554 -177.986042 0.919110 -0.000005 -0.000004 -1.175640 -9.611481 2.509104 0.460347 0.000005 0.000001 -0.134107 70.210028 -6.830422 -2.206654 25.456955 7.355613 -0.000001 
53.890999 -3.622504 84.284409 -10.330133 -0.982047 -3.271613 -0.301576 -0.017117 0.060390 3.399692 -0.041093 0.127313 5.044771 -0.039527 0.135257 10.148380 4.553943 -0.853496 6.961753 -6.070869 -0.634632 1.919586 -74.968348 0.281924 -50.549424 -111.845283 -53.643421 -0.000001 -0.000000 0.000000 -0.027803 3.643220 -1.990852 -0.000002 0.000002 -3.011609 -5.000166 -7.999920 0.000020 -12.752462 72.100481 15.507787 -42.223068 116.456993 49.028949 0.000002 0.000000 -0.000000 -0.028993 -3.646060 1.990785 -0.000006 0.000000 3.011609 -5.000183 7.999946 -0.000000 2.773081 -177.152335 5.156494 -179.999991 0.000005 -1.157001 168.001179 -3.261319 -0.721733 0.000003 -0.000004 0.182874 70.675464 6.832323 2.153881 25.456959 -7.355614 -0.000001 5.112833 -177.986028 0.917037 -0.000005 -0.000004 -1.175640 -9.610511 2.511753 0.460330 0.000005 0.000001 -0.134107 70.212466 -6.830411 -2.206702 25.456950 7.355613 -0.000001 
53.885300 -3.627601 84.288300 -10.326034 -0.982217 -3.274441 -0.303182 -0.017016 0.060390 3.396481 -0.039327 0.127314 5.041561 -0.037761 0.135258 10.163013 4.546193 -0.854046 6.954405 -6.068591 -0.634198 1.935441 -74.979317 0.297742 -50.564471 -111.847278 -53.656815 -0.000001 -0.000000 -0.000000 -0.027806 3.643220 -1.990853 0.000004 0.000001 -3.011609 -5.000162 -7.999920 0.000019 -12.750163 72.120432 15.505933 -42.287480 116.443442 49.072307 -0.000000 0.000000 0.000000 -0.028994 -3.646060 1.990786 -0.000007 -0.000000 3.011609 -5.000185 7.999949 -0.000001 2.777330 -177.150341 5.158104 -179.999991 0.000005 -1.157998 168.012490 -3.262431 -0.721297 0.000003 -0.000004 0.182449 70.663764 6.832351 2.153905 25.456955 -7.355614 0.000002 5.110387 -177.987039 0.914785 -0.000005 -0.000004 -1.175640 -9.609510 2.514552 0.460326 0.000005 0.000002 -0.134107 70.214802 -6.830398 -2.206758 25.456952 7.355613 -0.000000 
53.885899 -3.629822 84.292206 -10.322134 -0.982474 -3.277369 -0.304793 -0.016904 0.060390 3.393251 -0.037659 0.127315 5.038331 -0.036094 0.135259 10.178485 4.540717 -0.854829 6.946205 -6.068329 -0.634049 1.953337 -74.988968 0.315925 -50.578985 -111.849040 -53.670069 0.000000 -0.000000 0.000000 -0.027804 3.643220 -1.990853 0.000001 0.000002 -3.011610 -5.000165 -7.999919 0.000019 -12.749712 72.140977 15.506136 -42.355700 116.428825 49.119060 0.000000 0.000000 -0.000000 -0.028993 -3.646060 1.990785 -0.000006 -0.000000 3.011610 -5.000183 7.999948 -0.000002 2.781056 -177.147363 5.159913 -179.999991 0.000005 -1.157998 168.022476 -3.263527 -0.720934 0.000003 -0.000004 0.182058 70.653020 6.832346 2.153963 25.456955 -7.355613 0.000000 5.108307 -177.988023 0.912424 -0.000005 -0.000004 -1.175640 -9.608493 2.517537 0.460341 0.000005 0.000001 -0.134107 70.217029 -6.830416 -2.206724 25.456953 7.355613 -0.000000 
